<?xml version="1.0" standalone="no"?>
<!DOCTYPE svg PUBLIC "-//W3C//DTD SVG 20010904//EN"
 "http://www.w3.org/TR/2001/REC-SVG-20010904/DTD/svg10.dtd">
<svg version="1.0" xmlns="http://www.w3.org/2000/svg"
 width="1518.000000pt" height="1518.000000pt" viewBox="0 0 1518.000000 1518.000000"
 preserveAspectRatio="xMidYMid meet">

<g transform="translate(0.000000,1518.000000) scale(0.100000,-0.100000)"
fill="#ECECEC" stroke="none">
<path d="M7270 15164 c-30 -2 -127 -8 -215 -14 -1518 -102 -3004 -683 -4200
-1644 -412 -331 -850 -769 -1181 -1181 -832 -1035 -1386 -2299 -1578 -3602
-62 -423 -80 -672 -80 -1133 -1 -392 8 -553 45 -880 163 -1426 724 -2761 1633
-3889 321 -399 753 -830 1161 -1157 1108 -890 2455 -1452 3865 -1613 341 -39
470 -45 875 -45 405 0 534 6 875 45 1533 175 2956 808 4139 1843 160 139 534
513 677 677 1033 1178 1667 2604 1843 4139 38 330 46 488 46 885 -1 446 -18
691 -76 1095 -189 1317 -744 2591 -1583 3635 -331 412 -769 850 -1181 1181
-1095 880 -2429 1441 -3824 1609 -279 33 -495 46 -836 49 -192 2 -375 2 -405
0z m282 -4918 c52 -29 76 -60 88 -112 6 -22 10 -453 10 -1004 l-1 -965 946 -3
945 -2 0 984 c0 673 3 994 11 1013 14 38 46 71 91 94 35 18 66 19 600 19 l563
0 40 -23 c22 -12 50 -38 62 -56 l23 -34 0 -2632 0 -2632 -23 -34 c-48 -72 -24
-70 -679 -67 -575 3 -587 3 -614 24 -15 11 -37 33 -48 48 -21 27 -21 35 -24
1062 l-2 1034 -945 -2 -944 -3 -5 -255 c-3 -141 -12 -311 -21 -380 -111 -881
-666 -1446 -1570 -1600 -375 -64 -714 -64 -1070 0 -957 171 -1551 875 -1646
1952 -14 159 -6 254 24 300 44 64 48 65 513 108 236 22 480 45 542 51 131 13
170 8 213 -28 50 -42 59 -77 59 -220 0 -355 111 -683 286 -842 143 -131 401
-194 660 -161 358 44 529 224 579 606 13 99 15 362 15 1877 0 1688 1 1764 19
1802 20 43 40 64 86 88 26 14 100 16 602 17 l572 0 43 -24z"/>
</g>
</svg>
